name GIL08_static.mot
datacolumns 141
datarows 4
range 0.00833333 0.03333334
endheader

                time	           pelvis_tx	           pelvis_ty	           pelvis_tz	         pelvis_tilt	         pelvis_list	     pelvis_rotation	       hip_flexion_r	     hip_adduction_r	      hip_rotation_r	        knee_angle_r	       ankle_angle_r	    subtalar_angle_r	         mtp_angle_r	       hip_flexion_l	     hip_adduction_l	      hip_rotation_l	        knee_angle_l	       ankle_angle_l	    subtalar_angle_l	         mtp_angle_l	    lumbar_extension	      lumbar_bending	     lumbar_rotation	    ground_marker_px	    ground_marker_py	    ground_marker_pz	    ground_marker_px	    ground_marker_py	    ground_marker_pz	    ground_marker_px	    ground_marker_py	    ground_marker_pz	    ground_marker_px	    ground_marker_py	    ground_marker_pz	    ground_marker_px	    ground_marker_py	    ground_marker_pz	    ground_marker_px	    ground_marker_py	    ground_marker_pz	    ground_marker_px	    ground_marker_py	    ground_marker_pz	    ground_marker_px	    ground_marker_py	    ground_marker_pz	    ground_marker_px	    ground_marker_py	    ground_marker_pz	    ground_marker_px	    ground_marker_py	    ground_marker_pz	    ground_marker_px	    ground_marker_py	    ground_marker_pz	    ground_marker_px	    ground_marker_py	    ground_marker_pz	    ground_marker_px	    ground_marker_py	    ground_marker_pz	    ground_marker_px	    ground_marker_py	    ground_marker_pz	    ground_marker_px	    ground_marker_py	    ground_marker_pz	    ground_marker_px	    ground_marker_py	    ground_marker_pz	    ground_marker_px	    ground_marker_py	    ground_marker_pz	    ground_marker_px	    ground_marker_py	    ground_marker_pz	    ground_marker_px	    ground_marker_py	    ground_marker_pz	    ground_marker_px	    ground_marker_py	    ground_marker_pz	    ground_marker_px	    ground_marker_py	    ground_marker_pz	    ground_marker_px	    ground_marker_py	    ground_marker_pz	    ground_marker_px	    ground_marker_py	    ground_marker_pz	    ground_marker_px	    ground_marker_py	    ground_marker_pz	    ground_marker_px	    ground_marker_py	    ground_marker_pz	    ground_marker_px	    ground_marker_py	    ground_marker_pz	    ground_marker_px	    ground_marker_py	    ground_marker_pz	    ground_marker_px	    ground_marker_py	    ground_marker_pz	    ground_marker_px	    ground_marker_py	    ground_marker_pz	    ground_marker_px	    ground_marker_py	    ground_marker_pz	    ground_marker_px	    ground_marker_py	    ground_marker_pz	    ground_marker_px	    ground_marker_py	    ground_marker_pz	    ground_marker_px	    ground_marker_py	    ground_marker_pz	    ground_marker_px	    ground_marker_py	    ground_marker_pz	    ground_marker_px	    ground_marker_py	    ground_marker_pz	    ground_marker_px	    ground_marker_py	    ground_marker_pz	    ground_marker_px	    ground_marker_py	    ground_marker_pz	    ground_marker_px	    ground_marker_py	    ground_marker_pz	    ground_marker_px	    ground_marker_py	    ground_marker_pz	
          0.00833333	          0.78343320	          0.99560845	         -0.28012753	          8.99164009	          1.05593634	          2.19321513	        -10.81927586	         -4.58960533	         10.15986538	         -8.78549194	          9.53671551	          0.00000000	          0.00000000	         -9.41275787	         -3.10230756	          6.57723808	         -6.10724545	          5.95083809	          0.00000000	          0.00000000	        -23.09944153	         -1.74369335	         -0.47687528	          0.71639884	          0.91277909	         -0.27368438	          0.71461767	          0.89174759	         -0.22634917	          0.71064788	          0.89392143	         -0.33282301	          0.70270830	          0.47938508	         -0.20122290	          0.70677382	          0.48194820	         -0.36346796	          0.62496775	          0.07000826	         -0.17941049	          0.65585047	          0.06871080	         -0.35792363	          0.78343320	          0.99560845	         -0.28012753	          0.78739363	          0.99343973	         -0.17390418	          0.77947277	          0.99777722	         -0.38635087	          0.58085150	          1.00540137	         -0.22868638	          0.57654566	          1.00706339	         -0.31685781	          0.71551538	          0.48255041	         -0.14320384	          0.71140915	          0.48630521	         -0.42262688	          0.68914121	          0.50071752	         -0.26001084	          0.69533020	          0.49109319	         -0.31558999	          0.62330139	          0.07234365	         -0.14151894	          0.65179080	          0.06868391	         -0.39721444	          0.62194765	          0.07028489	         -0.20990649	          0.66367412	          0.07536294	         -0.32869646	          0.58041030	          0.04583634	         -0.19034718	          0.60944366	          0.04556464	         -0.35603002	          0.70135504	          1.39196146	         -0.28331253	          0.74038857	          1.19082296	         -0.28924057	          0.61341834	          1.46249890	         -0.28799602	          0.71663445	          1.39164376	         -0.20255221	          0.71101516	          1.38992214	         -0.35702410	          0.74548328	          0.04277025	         -0.18330789	          0.78347576	          0.04216099	         -0.37308043	          0.75651389	          0.60160607	         -0.07134478	          0.85359126	          0.62487555	         -0.36518022	          0.76715338	          0.65891981	         -0.14478587	          0.77795845	          0.68438447	         -0.40101489	          0.76282221	          0.57704967	         -0.16534266	          0.76781344	          0.59828717	         -0.40257826	          0.65376592	          0.14413714	         -0.07826764	          0.77001435	          0.17168859	         -0.35745373	          0.64482331	          0.20238076	         -0.14097542	          0.70479625	          0.22529799	         -0.36589125	
          0.01666667	          0.78344119	          0.99556291	         -0.28013310	          8.97708035	          1.05138040	          2.17814159	        -10.79639053	         -4.58612442	         10.17198753	         -8.78425598	          9.50454903	          0.00000000	          0.00000000	         -9.38447380	         -3.10252762	          6.56513357	         -6.12911797	          5.96176910	          0.00000000	          0.00000000	        -23.07070160	         -1.70936644	         -0.43505353	          0.71637297	          0.91287911	         -0.27291524	          0.71458477	          0.89172482	         -0.22636287	          0.71064311	          0.89388978	         -0.33283791	          0.70272523	          0.47934854	         -0.20123170	          0.70687389	          0.48193336	         -0.36345315	          0.62505621	          0.06999234	         -0.17938910	          0.65589857	          0.06870119	         -0.35792294	          0.78344119	          0.99556291	         -0.28013310	          0.78737319	          0.99340326	         -0.17391865	          0.77950913	          0.99772251	         -0.38634753	          0.58065617	          1.00543737	         -0.22799504	          0.57655764	          1.00704038	         -0.31691456	          0.71552849	          0.48251620	         -0.14321196	          0.71151161	          0.48628742	         -0.42261213	          0.68921262	          0.50063694	         -0.26003343	          0.69549119	          0.49090964	         -0.31556660	          0.62338734	          0.07233081	         -0.14149785	          0.65184075	          0.06867592	         -0.39721397	          0.62199360	          0.07021745	         -0.20990133	          0.66385657	          0.07534171	         -0.32869357	          0.58040816	          0.04586757	         -0.19032840	          0.60944134	          0.04555555	         -0.35601455	          0.70119923	          1.39187980	         -0.28330994	          0.74027187	          1.19075346	         -0.28938618	          0.61315823	          1.46246231	         -0.28801984	          0.71650273	          1.39151037	         -0.20255727	          0.71083778	          1.38989246	         -0.35702291	          0.74550050	          0.04273458	         -0.18329759	          0.78350461	          0.04216338	         -0.37307283	          0.75653630	          0.60160697	         -0.07134818	          0.85366148	          0.62482685	         -0.36513010	          0.76717365	          0.65885526	         -0.14479855	          0.77796948	          0.68425232	         -0.40097696	          0.76286215	          0.57698709	         -0.16535349	          0.76789886	          0.59818333	         -0.40254340	          0.65378982	          0.14410080	         -0.07826299	          0.77005881	          0.17162000	         -0.35742936	          0.64495546	          0.20225558	         -0.14097574	          0.70479983	          0.22514151	         -0.36584297	
          0.02500000	          0.78344035	          0.99554288	         -0.28013557	          8.97840118	          1.04821336	          2.16283774	        -10.79135132	         -4.58330441	         10.17967129	         -8.78726101	          9.48738194	          0.00000000	          0.00000000	         -9.37555790	         -3.10256100	          6.55582857	         -6.14932299	          5.98172235	          0.00000000	          0.00000000	        -22.99642181	         -1.71834433	         -0.29602882	          0.71640426	          0.91289222	         -0.27270669	          0.71457171	          0.89170736	         -0.22637631	          0.71065807	          0.89386481	         -0.33285254	          0.70274830	          0.47932750	         -0.20124118	          0.70696867	          0.48192319	         -0.36344153	          0.62510347	          0.06998426	         -0.17937274	          0.65592581	          0.06869520	         -0.35792431	          0.78344035	          0.99554288	         -0.28013557	          0.78734422	          0.99339080	         -0.17392556	          0.77953649	          0.99769497	         -0.38634560	          0.58065397	          1.00541115	         -0.22763896	          0.57656729	          1.00701189	         -0.31696746	          0.71554357	          0.48249713	         -0.14321977	          0.71161181	          0.48627448	         -0.42260027	          0.68926102	          0.50059664	         -0.26003733	          0.69575846	          0.49069294	         -0.31557417	          0.62342954	          0.07232603	         -0.14148192	          0.65187180	          0.06867135	         -0.39721572	          0.62201893	          0.07018415	         -0.20990996	          0.66395015	          0.07532387	         -0.32868972	          0.58040643	          0.04588676	         -0.19031177	          0.60944271	          0.04552991	         -0.35599726	          0.70119923	          1.39185798	         -0.28323570	          0.74051517	          1.19078398	         -0.28947392	          0.61290872	          1.46242595	         -0.28803006	          0.71667278	          1.39147615	         -0.20252593	          0.71068543	          1.38991213	         -0.35695919	          0.74550807	          0.04271233	         -0.18329087	          0.78351951	          0.04217067	         -0.37306982	          0.75654709	          0.60160965	         -0.07134796	          0.85373116	          0.62480295	         -0.36508831	          0.76719534	          0.65881217	         -0.14479008	          0.77797490	          0.68415356	         -0.40091547	          0.76288980	          0.57695508	         -0.16534165	          0.76802796	          0.59811753	         -0.40250999	          0.65379143	          0.14407954	         -0.07825942	          0.77009219	          0.17157149	         -0.35741213	          0.64504445	          0.20216981	         -0.14098182	          0.70480168	          0.22502525	         -0.36579853	
          0.03333334	          0.78342712	          0.99555308	         -0.28013068	          8.99982548	          1.04735065	          2.14492440	        -10.80844212	         -4.58240080	         10.18460464	         -8.79508591	          9.49210930	          0.00000000	          0.00000000	         -9.39174461	         -3.10173583	          6.54637194	         -6.16725731	          6.00658226	          0.00000000	          0.00000000	        -22.86554337	         -1.79255152	          0.02081953	          0.71631408	          0.91251802	         -0.27322057	          0.71457994	          0.89169383	         -0.22638960	          0.71069866	          0.89384651	         -0.33286709	          0.70277774	          0.47932252	         -0.20124763	          0.70705438	          0.48191905	         -0.36343288	          0.62510031	          0.06997916	         -0.17936604	          0.65592289	          0.06869226	         -0.35792503	          0.78342712	          0.99555308	         -0.28013068	          0.78729868	          0.99340576	         -0.17391917	          0.77955556	          0.99770039	         -0.38634220	          0.58088183	          1.00530624	         -0.22778471	          0.57657391	          1.00697374	         -0.31702062	          0.71556008	          0.48249435	         -0.14322348	          0.71170545	          0.48626754	         -0.42259121	          0.68926215	          0.50059664	         -0.26002768	          0.69588590	          0.49066094	         -0.31561238	          0.62341839	          0.07232377	         -0.14147575	          0.65187430	          0.06866950	         -0.39721698	          0.62202162	          0.07018316	         -0.20990808	          0.66395146	          0.07532219	         -0.32869127	          0.58040768	          0.04588278	         -0.19030309	          0.60944629	          0.04549684	         -0.35598263	          0.70142245	          1.39188993	         -0.28313798	          0.74122620	          1.19091904	         -0.28960282	          0.61268538	          1.46237528	         -0.28803229	          0.71732605	          1.39154232	         -0.20251581	          0.71052134	          1.38997412	         -0.35690698	          0.74550450	          0.04270947	         -0.18328550	          0.78351736	          0.04217716	         -0.37307012	          0.75653750	          0.60161251	         -0.07134154	          0.85380131	          0.62480968	         -0.36505288	          0.76720452	          0.65881026	         -0.14478570	          0.77808350	          0.68414116	         -0.40089628	          0.76288956	          0.57695472	         -0.16532907	          0.76816738	          0.59812856	         -0.40250242	          0.65377015	          0.14407574	         -0.07825527	          0.77011472	          0.17154713	         -0.35740215	          0.64504731	          0.20215571	         -0.14097497	          0.70486593	          0.22502753	         -0.36580729	
